<?xml version="1.0" encoding="utf-8"?>
<!-- Generator: Adobe Illustrator 14.0.0, SVG Export Plug-In . SVG Version: 6.00 Build 43363)  -->
<!DOCTYPE svg PUBLIC "-//W3C//DTD SVG 1.0//EN" "http://www.w3.org/TR/2001/REC-SVG-20010904/DTD/svg10.dtd">
<svg version="1.0" id="Layer_1" xmlns="http://www.w3.org/2000/svg" xmlns:xlink="http://www.w3.org/1999/xlink" x="0px" y="0px"
	 width="200px" height="200px" viewBox="0 0 200 200" enable-background="new 0 0 200 200" xml:space="preserve">
<g id="Layer_3">
	<g>
		<path fill="#F3F2F2" d="M163.972,94.984c-0.963,0.538-0.95,2.052-2.4,2.103c0.359,0.394,0.117,0.473,0,0.899
			c1.237-0.336,1.128-0.664,2.102,0c-1.691,0.401-3.875,1.325-5.402,2.702c-0.473-2.673,0.988-3.413,2.104-4.502
			C161.382,95.597,162.671,95.286,163.972,94.984z"/>
		<path fill="#F3F2F2" d="M154.669,74.277c2.801,2.401,6.526,3.879,7.803,7.805C159.698,79.651,157.05,77.097,154.669,74.277z"/>
		<path fill="#F3F2F2" d="M150.468,69.775c0.349,0.049,0.533-0.066,0.601-0.3c1.16,0.04,1.183,1.217,2.101,1.501
			c-0.084,0.709-0.803-0.346-1.199-0.3c0.382,1.019,1.664,1.135,1.8,2.399C152.466,72.179,151.497,70.948,150.468,69.775z"/>
		<path fill="#E4E2E2" d="M138.763,58.973c0.351-0.051,0.535,0.066,0.6,0.3c0.447-0.132-0.117-0.384,0-0.899
			c1.907,1.793,3,4.404,4.803,6.301C142.023,63.114,140.699,60.739,138.763,58.973z"/>
		<path fill="#F3F2F2" d="M133.062,52.67c0.943-0.142,0.794,0.808,1.501,0.9c0.046-0.746-0.472-0.929-0.601-1.5
			c0.604,0.139,3.172,3.399,4.5,4.803c-0.219,0.67-0.901-0.664-1.5-0.601c0.227,0.873,0.715,1.488,1.199,2.101
			C136.016,56.918,134.896,54.438,133.062,52.67z"/>
		<path d="M114.755,34.363c0.287,2.014,23.945,24.272,24.01,24.609c1.936,1.767,9.753,10.254,10.504,10.203
			c1.804,1.697,10.431,10.476,13.203,12.904c2.683,2.521,5.478,4.928,4.505,11.104c0,0.2,0,0.4,0,0.6
			c-0.974,0.43-2.263,0.541-3.003,1.2c-1.301,0.302-2.59,0.612-3.602,1.201c-0.923,0.078-1.351,0.651-2.103,0.901
			c-0.081,1.016-0.478,1.723-0.3,3c-1.086,2.814-0.814,6.988-0.899,10.806c0.267,4.014-0.522,8.245,0.299,11.103
			c0,0.1,0,0.2,0,0.299c-0.174,2.479,0.212,4.394,0.601,6.303c1.205,0.5,1.765,1.64,3.603,1.501c0.952,0.95,2.593,1.213,3.901,1.803
			c0.556,1.445,0.205,3.796,0.302,5.701c-0.911,1.188-1.344,2.858-1.503,4.801c-0.695,0.405-1.702,0.496-2.398,0.9
			c-2.371-0.032-6.59,0.589-9.004,1.501c-0.501,0-1,0-1.501,0c0.05-0.354,0.548-0.254,0.9-0.303
			c-1.203-0.763-3.718,1.168-7.502,0.902c0.745-0.654-5.474,1.432-6.604,1.199c0.198-0.4-3.8-0.699-4.801,0
			c-3.52,0.314-7.188,0.938-9.303,1.803c-0.913,0.287-1.797,0.604-2.7,0.899c0.903,0.789,2.577-0.21,3.3-0.601
			c0.292,0.008,0.233,0.366,0.301,0.601c-2.779,0.819-6.604,1.499-6.604,1.8c-2.53,0.168-4.924,0.479-6.9,1.202
			c-1.337-0.037-1.552,1.049-3.002,0.899c-2.346,0.479-4.104,0.984-6.302,2.1c0.082-0.617,1.117-0.282,1.199-0.899
			c-2.062,0.856-15.468,4.538-16.206,5.101c-2.475,0.177-4.332-0.269-6.301-0.601c-0.948-0.651-1.162-2.038-2.702-2.1
			c-3.261-1.041-43.308-84.537-44.115-85.83c-0.183-0.719-1.201-8.604-1.201-8.703c0.599-2.604,0.714-5.689,1.5-8.104
			c0.693-0.808,1-2,1.501-3c1.363-1.238,2.715-2.487,3.602-4.201c0.815-0.686,10.668-3.139,11.104-3.602
			c2.009,0.008,3.38-0.621,5.103-0.9c1.289,0.021,3.382,0.806,4.5,0c0.102,0,0.201,0,0.301,0c3.429,0.228,18.5-3.807,18.906-3.901
			c2.264,0.161,21.106-4.802,21.308-4.802C101.651,33.764,112.382,31.27,114.755,34.363z M117.155,42.767
			c1.1,0.101,1.213,1.188,2.7,0.899c-2.832-6.105-10.907-10.267-18.604-5.701c0.916,0.482,2.438,0.363,3.299,0.899
			c0,0.101,0,0.2,0,0.3c0.515,0.41,2.787,1.547,1.504,0.301c1.353,0.059,0.67,0.754,2.1,0.3c0.354,0.047,0.85-0.05,0.9,0.3
			c-0.371,0.43-1.032,0.568-1.801,0.602c-6.297-1.521-11.887-2.617-18.008-0.302c-0.91,0.188-2.584-0.384-3,0.302
			c-9.09,2.614-19.644,3.764-29.109,6.002c0.074,0.926,0.305,1.695,0.601,2.399c-0.161,0.213-0.212,1.408,0,1.802
			c-0.953-1.148-1.946-2.256-2.401-3.901c-5.8,0.001-9.271,2.331-14.404,3c0.104,1.497,0.551,2.649,1.201,3.602
			c-0.377,0.124-0.614,0.388-0.602,0.9c-0.75-1.15-1.773-2.027-2.102-3.601c-2.559,1.842-3.793,5.008-3.899,9.303
			c-0.694,1.802-0.237,5.033,0.3,6.603c8.646,26.967,22.918,48.309,35.413,71.428c0,0.098,0,0.196,0,0.297
			c0.275,0.892,2.097,1.949,2.4,0.301c-0.56-0.287-1.003,0.9-1.2,0c-0.141-0.573,0.925-1.293-0.3-1.199
			c0.419-2.076-0.257-2.702,0.3-4.202c0.663-0.038,0.128-1.271,0.3-1.801c0.399,0,0.8,0,1.199,0
			c-0.769-0.981-0.192-1.548-0.601-3.002c0.692,0.598,0.334-0.073,0.9-0.3c0.614,2.162,0.16,3.822,0,6.002c-0.201,0-0.4,0-0.6,0
			c0.416,1.233-0.807,3.143,0.299,4.201c0.551,0.951,0.007,2.996,1.201,3.303c0.263-1.945-0.312-4.377-0.301-5.102
			c1.468-0.408,0.223-0.527,0.301-1.803c0.729-4.523,1.629-8.768,3.302-13.504c1.067,0.466,0.183-1.02,0.899-0.9
			c0.291,1.859-1.432,1.5-0.899,2.7c-0.092-0.362,0.867-1.034,0.899-0.3c-1.172,3.9-1.963,6.959-2.4,11.104
			c-0.161,0.037-0.027-1.949-0.9-0.899c0.769,1.672,0.219,5.241,0.9,8.104c1.385,4.178,1.691,9.66,4.803,13.202
			c8.254-0.05,15.452-3.753,23.709-4.802c4.707-1.395,9.373-2.83,14.401-3.9c0.996-0.305,2.569-0.033,2.703-1.203
			c-1.231,0.072-2.455,0.149-3.304,0.602c-2.818,1.291-7.172,0.486-10.502,1.803c-0.86,0.059-1.64,0.035-1.5-0.9
			c0.526-0.172,1.762,0.363,1.801-0.301c1.672,1.605,1.779-1.674,3.601,0c-0.093-0.69,0.868-0.332,0.899-0.899
			c4.384,0.165,9.494-3.013,12.607-1.201c0.631-2.339,6.643-1.705,9.602-2.7c0.1,0,0.199,0,0.299,0
			c1.559,0.578,3.145,0.66,3.9-0.898c1.235,0.233,1.541-0.463,2.703-0.303c0.805,1.189,3.728,0.493,3.301-0.599
			c0.285,0.614,0.736,1.062,1.502,1.199c-0.057-0.655,0.244-0.953,0.899-0.9c-0.129,0.472-0.944,0.257-0.6,1.199
			c1.231-0.994,1.53-0.104,2.399-0.899c-0.537-0.164-1.248-0.151-1.5-0.599c0.655-0.999,1.613,0.914,2.101,0
			c-0.234-0.065-0.351-0.252-0.3-0.603c1.046-0.553,2.595-0.604,3.899-0.898c1.687-0.286,2.07,0.73,3,1.199
			c-0.565,0.134-1.807-0.406-1.5,0.601c2.235,0,4.283-0.053,4.804-0.899c-1.185,0.289-2.211,0.422-3.004,0
			c0.447-0.164,0.469-0.187,0.9-0.899c0.036,0.366,0.091,0.71,0.602,0.603c-0.012-0.416,0.143-0.662,0.299-0.902
			c-0.354-0.146-0.678-0.32-0.899-0.6c0.401-0.601,1.332-0.668,2.103-0.901c1.011,0.31,0.467-0.935,0.602-1.501
			c-1.383-0.771-3.405-1.985-5.402-1.199c-0.468,1.066,1.02,0.182,0.899,0.9c-3.736,1.358-8.05,1.617-12.604,2.701
			c-1.388,0.062,0.295-1.07-0.6-1.5c0.93,0.027,1.434-0.369,2.104-0.603c0.014,0.385,0.381,0.416,0.299,0.899
			c1.078,0.183,0.883-0.916,1.802-0.899c-0.019,0.385-0.386,0.416-0.302,0.899c1.146-1.139,1.183-0.573,3.302-0.899
			c0.338-0.942-0.086-0.792,0.3-1.5c0.925-0.074,1.696-0.304,2.4-0.603c0-0.299,0-0.598,0-0.898c0.486-2.598,0.486-7.006,0-9.604
			c-0.661-5.718-0.137-12.429,0.3-18.007c0-2.5,0-5.001,0-7.502c-0.528,0.173-1.763-0.362-1.8,0.3
			c-22.334,8.168-53.393,8.604-70.226,23.709c-0.665,0.434,0.378,0.732-0.3,0.899c-0.439-0.762-1.247-1.153-1.501-2.103
			c-0.157,0.117-0.444,1.459-0.601,0.602c2.066-4.934,6.547-7.458,12.305-8.703c0.301,0,0.357-0.243,0.6-0.299
			c2.205-0.396,4.461-0.742,5.701-2.102c0-0.201,0-0.401,0-0.602c-1.02-0.566-2.688,0.4-3.9,0.602
			c-0.84,0.045-0.979-0.85-0.601-1.201c1.524-0.377,2.546-1.256,4.501-1.2c-0.122-1.181-1.318-1.282-1.5-2.402
			c0.125-0.377,0.389-0.612,0.9-0.6c1.277,0.612,1.732,3.002,3.603,2.101c0.71,0.452,1.474,0.09,0.899,1.201
			c-0.84,0.46-2.639-0.038-2.402,1.5c11.846-2.66,26.571-5.041,36.314-10.803c-0.533-0.611-1.637,0.746-2.701,0.599
			c-1.7,0.201-2.729-0.274-3.9-0.599c-0.09,0.589,0.403,0.594,0.6,0.9c-1.021,0.328-2.278-0.795-1.498,0.299
			c-0.829,0.473-1.36,1.242-2.702,1.201c-0.005-0.597-0.819-0.382-0.603-1.201c0.385,0.017,0.418,0.386,0.902,0.301
			c-0.562-1.362,1.189-0.408,0.898-1.5c2.953-0.35,4.604-1.997,8.103-1.803c0.615-1.484,1.001-3.201,2.101-4.199
			c0.34,0.062,0.469,0.333,0.602,0.6c0.109,1.311-1.307,1.094-0.898,2.7c0.737,0.04,1.444,0.046,1.799-0.299
			c0.514,0.122-0.061,0.387,0,0.899c0.711,0.082,0.946-1.815,1.801-0.601c-0.301,0-0.6,0-0.9,0c-0.023,0.819,0.501,0.604,0,1.2
			c-1.273,0.425-2.925,0.473-2.699,2.402c9.854-1.552,18.35-4.461,25.81-8.404c-0.183-1.229-0.823-0.601-1.8-0.6
			c0.065-0.234,0.252-0.35,0.601-0.3c0.466-1.066-1.021-0.181-0.899-0.9c1.488,0.091,2.318-0.481,3-1.201
			c-0.846-0.942-0.822,0.779-1.5,0c0.065-0.232,0.008-0.592,0.299-0.6c-4.924-5.682-10.311-10.896-15.903-15.906
			c-0.856,1.445-1.608,2.994-2.401,4.502c-0.301,0-0.602,0-0.902,0c0.822-1.982,1.689-3.916,2.402-6.002
			c-3.389-2.215-5.527-5.676-8.703-8.103c-2.343-2.159-4.561-4.442-6.901-6.603c-4.359-5.445-9.521-10.088-17.707-11.705
			c0.077-0.623,1.317-0.081,1.501-0.6C113.628,43.238,114.886,41.972,117.155,42.767z M75.441,142.702
			c-0.123-0.375-0.388-0.613-0.899-0.599c-0.422,1.312-0.088,1.851,0.6,2.699c-0.039,0.538,0.298,0.702,0.9,0.601
			c-0.541-1.17,1.711-1.053,0.602-1.802C76.438,144.26,75.876,142.803,75.441,142.702z M165.472,133.398
			c-1.508-0.224-1.523,2.502,0,2.399C165.268,134.669,165.268,134.528,165.472,133.398z"/>
		<path fill="#070707" d="M140.565,146.304c0.159-0.609,4.118-2.378,7.502-1.803c-0.691,0.711-2.557,0.248-3.301,0.901
			c3.785,0.265,6.299-1.665,7.502-0.901c-0.354,0.047-0.852-0.051-0.9,0.302c0.502,0,1,0,1.502,0c0.198,0,0.398,0,0.6,0
			c0,0.099,0,0.2,0,0.299c-3.176,0.526-7.357,0.044-9.903,1.202c-0.699,0-1.399,0-2.101,0
			C141.165,146.304,140.864,146.304,140.565,146.304z"/>
		<path fill="#0D0D0D" d="M124.658,148.704c-0.723,0.392-2.396,1.391-3.3,0.602c0.904-0.295,1.787-0.612,2.7-0.899
			C124.407,148.355,124.591,148.472,124.658,148.704z"/>
		<path fill="#111313" d="M35.827,51.17c1.119-1.482,1.971-3.232,3.602-4.201C38.542,48.683,37.19,49.932,35.827,51.17z"/>
		<path fill="#070707" d="M88.946,36.765c-1.543,0.049-2.939,1.537-4.201,0.899c0-0.1,0-0.199,0-0.3
			c1.799,0.099,2.451-0.95,4.201-0.899C88.946,36.564,88.946,36.664,88.946,36.765z"/>
		<path fill="#070707" d="M158.569,136.7c0.223,0.279,0.547,0.454,0.9,0.601c-0.157,0.241-0.312,0.485-0.299,0.901
			c-0.512,0.108-0.565-0.234-0.603-0.602c-0.433,0.714-0.453,0.736-0.899,0.898c0.793,0.422,1.818,0.291,3.002,0
			c-0.52,0.849-2.566,0.9-4.803,0.9c-0.307-1.007,0.936-0.467,1.5-0.602c-0.93-0.467-1.312-1.484-3-1.198
			c-0.05-0.652,1.065-0.136,1.5-0.302C156.987,137.317,157.768,136.999,158.569,136.7z"/>
		<path fill="#111313" d="M128.261,98.587c-0.779-1.094,0.479,0.028,1.5-0.301c-0.196-0.306-0.689-0.311-0.601-0.899
			c1.173,0.325,2.2,0.8,3.9,0.599c-0.336,0.604-2.321,0.344-2.699,0C130.105,98.632,129.255,98.682,128.261,98.587z"/>
		<path fill="#C18A2C" d="M104.55,38.865c-0.861-0.537-2.383-0.417-3.299-0.9c7.696-4.564,15.771-0.403,18.604,5.703
			c-1.487,0.289-1.601-0.801-2.7-0.9c-2.479-0.823-4.88-1.723-7.501-2.4c-0.243-0.057-0.301-0.302-0.601-0.301
			c-0.051-0.352-0.547-0.253-0.9-0.3C107.403,39.014,105.72,39.197,104.55,38.865z"/>
		<path fill="#4E908F" d="M89.245,40.365c6.122-2.316,11.711-1.219,18.008,0.301c0.433,0.666,1.785,0.416,2.4,0.901
			c0.544,0.556,1.811,0.39,2.398,0.9c8.188,1.616,13.349,6.259,17.707,11.704c1.312,1.99,3.857,5.343,6.902,6.603
			c3.176,2.427,5.314,5.888,8.702,8.103c-0.712,2.086-1.579,4.021-2.401,6.002c-1.16,2.839-2.069,5.931-3.301,8.703
			c-1.021,1.076-0.699,3.498-1.8,4.502c-0.392,1.007-1.11,1.688-0.901,3.302c-1.1,0.999-1.484,2.715-2.101,4.199
			c-3.497-0.194-5.147,1.453-8.103,1.803c-1.358,0.04-2.342,0.459-3.301,0.9c0.051,0.649-1.065,0.135-1.5,0.299
			c-0.957-0.256-0.93,0.474-1.5,0.601c-0.537-0.039-0.636,0.368-1.203,0.3c-3.34,0.361-5.258,2.143-8.4,2.701
			c-1.837,0.264-3.333,0.868-4.801,1.501c-1.422-0.119-1.371,1.231-3.002,0.899c-1.01-0.008-1.59,0.414-2.102,0.9
			c-1.869,0.902-2.324-1.488-3.604-2.101c-0.984-1.815-2.377-3.226-3.6-4.802c-0.306-1.696-1.484-2.519-2.402-3.603
			c-1.606-2.494-3.815-4.386-5.4-6.9c-0.374-0.929-1.105-1.496-1.802-2.103c-0.566-1.634-1.97-2.431-2.7-3.899
			c-0.84-0.662-0.904-2.099-1.801-2.703c-0.352-0.948-1.002-1.599-1.502-2.399c-0.51,0.108-0.564-0.235-0.6-0.601
			c0.021-0.83-1.334-2.86-2.101-3.901c-0.779-1.222-1.537-2.466-2.701-3.302c-0.53-1.37-1.588-2.213-2.702-3.002
			c0.141-1.238-0.708-1.49-1.199-2.101c-0.922-1.577-2-3-3.302-4.2c-1.866-2.235-2.882-5.321-5.102-7.203
			c-0.591-1.51-1.343-2.859-2.701-3.602c-0.296-0.704-0.526-1.474-0.601-2.4c9.465-2.237,20.021-3.388,29.109-6.002
			c-1.951,1.318,3.332-0.343,5.102,0C91.218,39.994,89.867,40.543,89.245,40.365z"/>
		<path fill="#539796" d="M136.663,60.773c-3.045-1.259-5.592-4.611-6.902-6.604C132.103,56.33,134.32,58.614,136.663,60.773z"/>
		<path fill="#539796" d="M89.245,40.365c0.622,0.18,1.973-0.371,2.102,0.301c-1.771-0.343-7.053,1.318-5.102,0
			C86.661,39.981,88.335,40.554,89.245,40.365z"/>
		<path fill="#0D0D0D" d="M104.55,38.865c1.17,0.332,2.854,0.148,3.604,0.9c-1.43,0.455-0.747-0.241-2.1-0.301
			c1.283,1.248-0.989,0.111-1.504-0.301C104.55,39.064,104.55,38.965,104.55,38.865z"/>
		<path fill="#070707" d="M107.253,40.666c0.77-0.031,1.431-0.17,1.803-0.601c0.299-0.001,0.355,0.244,0.6,0.3
			c0.262,0.439,0.448,0.951,1.2,0.901c-0.093,0.407-0.752,0.249-1.2,0.301C109.04,41.08,107.686,41.332,107.253,40.666z"/>
		<path fill="#0D0D0D" d="M109.654,41.566c0.448-0.052,1.106,0.105,1.2-0.301c-0.752,0.05-0.939-0.461-1.2-0.901
			c2.621,0.679,5.022,1.578,7.501,2.401c-2.27-0.795-3.527,0.472-3.602-0.9c-0.182,0.518-1.424-0.022-1.5,0.6
			C111.464,41.955,110.198,42.123,109.654,41.566z"/>
		<path fill="#C18A2C" d="M57.735,50.869c0.589,0.812,0.979,1.821,1.8,2.401c1.462,2.14,2.861,4.343,4.503,6.302
			c1.215,2.088,2.844,3.76,4.201,5.702c0.088,0.613,0.812,0.588,0.9,1.201c0.957,1.742,2.377,3.024,3.602,4.502
			c0.783,0.717,0.922,2.079,2.1,2.399c0.067,1.232,0.637,1.966,1.201,2.701c0.433,0.67,0.814,1.387,1.2,2.102
			c0.578,0.623,0.948,1.453,1.5,2.101c0.447,0.753,0.749,1.653,1.5,2.101c0.626,1.576,1.859,2.545,2.702,3.902
			c0.784,0.815,1.307,1.896,2.1,2.7c1.707,2.395,3.471,4.732,5.402,6.902c0.674,0.728,1.156,1.646,1.801,2.402
			c1.252,2.049,2.627,3.976,4.201,5.7c0.182,1.12,1.378,1.222,1.5,2.402c-1.955-0.056-2.977,0.823-4.501,1.2
			c-0.743-0.043-1.456-0.057-1.5,0.6c-1.041-0.24-1.153,0.447-2.101,0.301c-0.256-0.056-0.283,0.117-0.301,0.301
			c-3.64,0.146-6.145,2.953-9.304,1.799c0.142-1.44-0.631-1.969-1.2-2.699c-1.041-1.36-1.908-2.893-3.3-3.903
			c-5.211-7.073-9.28-14.8-14.706-22.207c-0.515-0.686-0.885-1.517-1.501-2.101c-0.642-0.558-0.54-1.859-1.5-2.101
			c-0.452-2.248-2.043-3.358-3.002-5.103c-1.456-2.845-4.088-5.433-5.102-7.804c-1.921-2.98-3.599-6.204-6.003-8.703
			c-0.314-1.084-1.137-1.662-1.799-2.401c-0.65-0.95-1.097-2.104-1.201-3.602c5.132-0.669,8.604-2.999,14.404-3
			C55.788,48.614,56.782,49.722,57.735,50.869z"/>
		<path fill="#343231" d="M39.429,46.969c-1.631,0.968-2.482,2.719-3.602,4.201c-0.501,1-0.808,2.193-1.501,3c0-0.2,0-0.399,0-0.601
			c1.147-3.054,2.763-5.64,5.401-7.202c1.104-0.097,1.66-0.74,2.701-0.9C42.04,46.578,40.245,46.285,39.429,46.969z"/>
		<path fill="#9F722A" d="M60.437,82.682c4.742,7.36,9.375,14.833,14.705,21.606c1.309,1.193,2.097,2.907,3.302,4.203
			c1.856,1.529,1.706,4.745,0.3,6.603c-0.615,0.084-0.598,0.8-0.9,1.2c0.047,0.744-0.471,0.93-0.601,1.5
			c-0.387,0.812-1.042,1.358-1.2,2.398c-0.57,2.031-1.664,3.539-2.102,5.703c-0.762,2.238-1.723,4.277-1.5,7.503
			c-0.559,1.5,0.119,2.126-0.3,4.202c0.14,0.64-0.429,0.57-0.9,0.602c-12.495-23.117-26.768-44.459-35.413-71.427
			c0.024-2.327-0.517-4.086-0.3-6.604c0.106-4.293,1.341-7.461,3.899-9.303c0.328,1.573,1.352,2.45,2.102,3.602
			c0.75,0.652,0.588,2.214,1.801,2.402c1.67,2.631,3.295,5.308,5.102,7.801c1.854,2.822,3.932,6.431,5.701,8.404
			c0.953,1.648,1.854,3.35,3.002,4.803c0.062,1.238,1.17,1.43,1.5,2.399C58.907,81.408,59.665,82.052,60.437,82.682z"/>
		<path fill="#070707" d="M57.735,49.068c1.357,0.742,2.109,2.092,2.701,3.602c-0.514-0.014-0.778,0.224-0.901,0.601
			c-0.821-0.58-1.21-1.59-1.8-2.401C57.523,50.478,57.574,49.281,57.735,49.068z"/>
		<path d="M59.535,53.271c0.123-0.377,0.388-0.614,0.901-0.601c2.22,1.882,3.234,4.968,5.102,7.203
			c-0.259,1.125-1.113,0.127-1.5-0.301C62.396,57.613,60.997,55.41,59.535,53.271z"/>
		<path fill="#0D0D0D" d="M48.432,64.674c-1.806-2.494-3.433-5.17-5.103-7.803c0.377-0.123,0.613-0.388,0.6-0.9
			c2.404,2.499,4.082,5.722,6.003,8.703c-0.408-0.791-1.187-1.213-1.8-1.801C47.4,63.174,49.361,64.084,48.432,64.674z"/>
		<path fill="#1B1610" d="M65.538,59.873c1.301,1.2,2.379,2.623,3.301,4.2c-0.551,0.957-1.032-0.2-0.6,1.201
			c-1.357-1.942-2.986-3.614-4.201-5.702C64.425,60,65.279,61,65.538,59.873z"/>
		<path d="M68.238,65.274c-0.433-1.399,0.05-0.244,0.601-1.201c0.492,0.609,1.34,0.862,1.199,2.101
			c-0.056,0.244-0.3,0.301-0.3,0.602c-0.243-0.057-0.299-0.301-0.601-0.3C69.05,65.862,68.327,65.888,68.238,65.274z"/>
		<path fill="#F3F2F2" d="M144.165,64.674c2.572,0.229,3.746,1.857,5.403,3.002c-0.198,0.897-0.644-0.287-1.2,0
			c-0.386,1.185,0.873,0.726,0.899,1.5c-0.751,0.051-0.938-0.461-1.2-0.9c-1.162-1.139-2.008-2.596-3.602-3.302
			C144.281,64.957,144.111,64.93,144.165,64.674z"/>
		<path fill="#0D0D0D" d="M70.038,66.174c1.114,0.789,2.172,1.633,2.702,3.002c-1.821,0.699,1.58,1.285,0,1.801
			c-1.225-1.477-2.644-2.76-3.603-4.502c0.302,0,0.357,0.243,0.601,0.3C69.738,66.475,69.983,66.418,70.038,66.174z"/>
		<path d="M54.134,73.078c-1.771-1.975-3.848-5.584-5.702-8.404c0.93-0.59-1.031-1.5-0.3-1.801c0.613,0.588,1.393,1.01,1.8,1.801
			c1.013,2.371,3.646,4.957,5.102,7.804C55.173,73.119,54.605,73.049,54.134,73.078z"/>
		<path fill="#C18A2C" d="M143.866,74.877c0.792-1.508,1.544-3.056,2.401-4.502c5.594,5.01,10.979,10.226,15.903,15.908
			c-0.291,0.008-0.232,0.366-0.299,0.6c-1.311,0.992-3.881,0.72-5.104,1.8c-0.301,0-0.602,0-0.9,0
			c-1.406,0.592-3.171,0.83-4.501,1.5c-1.096,0.306-2.057,0.745-3,1.202c-1.434-0.134-2.176,0.425-3.003,0.899
			c-1.477,0.023-2.413,0.588-3.6,0.9c-1.604-0.104-2.108,0.895-3.303,1.201c-0.354,0.345-1.062,0.339-1.801,0.299
			c-0.406-1.605,1.01-1.389,0.899-2.7c0.746-0.454,0.377-2.024,0.899-2.7c1.156-1.444,1.445-3.759,2.104-5.702
			C141.702,80.719,143.409,78.422,143.866,74.877z"/>
		<path fill="#0D0D0D" d="M75.441,72.478c0.765,1.041,2.12,3.073,2.101,3.901c-0.125-0.319-1.646-0.697-1.5-0.301
			c-0.564-0.735-1.133-1.469-1.201-2.701c0.244,0.059,0.299,0.302,0.602,0.301C75.441,73.277,75.441,72.877,75.441,72.478z"/>
		<path fill="#0D0D0D" d="M55.033,72.478c0.958,1.743,2.55,2.854,3.002,5.103c-0.558,0.443-0.776-0.73-0.899,0.299
			c-1.148-1.452-2.049-3.152-3.002-4.801C54.605,73.049,55.173,73.119,55.033,72.478z"/>
		<path d="M77.241,78.18c-0.386-0.715-0.77-1.432-1.199-2.102c-0.146-0.396,1.375-0.019,1.5,0.301
			c0.033,0.365,0.088,0.709,0.6,0.601c0,0.399,0,0.8,0,1.2C77.749,77.818,77.671,78.062,77.241,78.18z"/>
		<path fill="#070707" d="M58.636,80.279c-0.33-0.97-1.439-1.162-1.5-2.4c0.123-1.029,0.343,0.145,0.899-0.299
			c0.96,0.24,0.858,1.543,1.5,2.101C59.315,79.959,58.989,80.135,58.636,80.279z"/>
		<path fill="#0D0D0D" d="M78.142,76.979c0.5,0.801,1.15,1.451,1.501,2.399c-0.433,0.168-0.733,0.47-0.9,0.9
			c-0.553-0.646-0.922-1.478-1.5-2.101c0.429-0.117,0.507-0.36,0.9,0C78.142,77.779,78.142,77.379,78.142,76.979z"/>
		<path d="M79.643,79.379c0.897,0.604,0.961,2.041,1.801,2.703c-0.476,0.023-1.146-0.146-1.202,0.299
			c-0.751-0.447-1.053-1.348-1.5-2.102C78.909,79.849,79.21,79.547,79.643,79.379z"/>
		<path fill="#0D0D0D" d="M81.443,82.082c0.729,1.47,2.133,2.267,2.7,3.899c-0.094,0.408-0.75,0.25-1.199,0.302
			c-0.843-1.359-2.076-2.328-2.702-3.902C80.298,81.937,80.968,82.105,81.443,82.082z"/>
		<path fill="#070707" d="M82.944,86.283c0.449-0.053,1.105,0.106,1.199-0.302c0.695,0.606,1.429,1.173,1.802,2.103
			c0,0.3,0,0.6,0,0.899c-0.3,0-0.603,0-0.901,0C84.251,88.178,83.729,87.098,82.944,86.283z"/>
		<path fill="#212221" d="M137.863,88.084c1.101-1.004,0.777-3.426,1.8-4.502c0.125,0.511,0.389-0.063,0.902,0
			c-0.657,1.943-0.945,4.258-2.104,5.702C138.395,88.751,138.766,87.779,137.863,88.084z"/>
		<path fill="#0D0D0D" d="M61.036,81.78c5.426,7.407,9.494,15.133,14.706,22.207c-0.009,0.292-0.368,0.233-0.602,0.301
			c-5.329-6.774-9.962-14.246-14.705-21.607C61.132,82.242,59.85,81.729,61.036,81.78z"/>
		<path fill="#070707" d="M160.671,89.284c-1.232-0.252-2.849-0.156-2.401,0.899c-0.404,0.095-0.571,0.428-1.199,0.3
			c0.009-0.292,0.366-0.232,0.599-0.3c-0.268-0.531-0.724-0.876-0.898-1.5c1.223-1.081,3.793-0.809,5.104-1.801
			c0.678,0.779,0.654-0.942,1.5,0c-0.682,0.72-1.512,1.292-3,1.201c-0.121,0.72,1.365-0.166,0.899,0.9
			C160.923,88.934,160.738,89.048,160.671,89.284z"/>
		<path fill="#261E13" d="M158.27,90.184c-0.446-1.056,1.169-1.151,2.401-0.899c0.978-0.002,1.617-0.631,1.801,0.6
			C161.188,89.054,159.388,89.89,158.27,90.184z"/>
		<path d="M155.87,88.683c0.299,0,0.6,0,0.899,0c0.176,0.624,0.632,0.97,0.899,1.5c-0.232,0.068-0.592,0.008-0.6,0.3
			c-0.503,0.397-1.005,0.795-2.102,0.601C155.483,90.497,155.491,89.404,155.87,88.683z"/>
		<path fill="#0D0D0D" d="M151.068,92.284c-0.269-1.048,0.979-0.513,1.2-0.3c0.501-0.665,0.015-1.327-0.9-1.801
			c1.33-0.671,3.094-0.908,4.502-1.5c-0.379,0.722-0.387,1.815-0.9,2.401C153.366,91.368,152.302,92.456,151.068,92.284z"/>
		<path d="M148.368,91.385c0.943-0.457,1.904-0.896,3-1.202c0.915,0.474,1.401,1.136,0.9,1.801c-0.221-0.213-1.469-0.748-1.2,0.301
			c-2.478,1.323-6.274,1.325-8.703,2.699c-0.766-0.229-1.381-0.441-1.8,0.301c-0.709-0.63,0.54-1.843,1.2-2.101
			c1.187-0.312,2.122-0.877,3.6-0.899c0.861,0.754,1.89,0.875,3.902,0.6c0.269-0.969-0.979-0.422-1.2-0.9
			C148.126,91.741,148.368,91.686,148.368,91.385z"/>
		<path fill="#0D0D0D" d="M85.945,88.084c1.584,2.515,3.794,4.407,5.401,6.9c-0.807-0.206-0.58,0.621-0.9,0.9
			c-1.932-2.169-3.695-4.507-5.402-6.902c0.301,0,0.602,0,0.901,0C85.945,88.683,85.945,88.382,85.945,88.084z"/>
		<path fill="#0D0D0D" d="M145.365,92.284c0.827-0.475,1.569-1.033,3.003-0.899c0,0.301-0.242,0.356-0.301,0.6
			c0.223,0.479,1.469-0.069,1.2,0.9C147.255,93.159,146.227,93.04,145.365,92.284z"/>
		<path fill="#0D0D0D" d="M141.766,93.185c-0.66,0.258-1.909,1.471-1.2,2.102c0.419-0.742,1.034-0.531,1.8-0.302
			c-0.71,0.595-1.896,0.708-3.003,0.9c0.501-0.595-0.023-0.382,0-1.2c0.301,0,0.602,0,0.9,0c-0.854-1.215-1.09,0.684-1.801,0.602
			c-0.061-0.514,0.514-0.777,0-0.9C139.657,94.079,140.163,93.083,141.766,93.185z"/>
		<path fill="#161919" d="M91.347,94.984c0.916,1.084,2.096,1.906,2.4,3.603c-0.529-0.264-0.875-0.951-1.5-0.301
			c-0.645-0.756-1.125-1.674-1.801-2.401C90.767,95.605,90.54,94.778,91.347,94.984z"/>
		<path fill="#B9AEA1" d="M151.968,96.786c0.301,0,0.602,0,0.9,0c1.564,1.137-0.171,5.573,0.899,7.202
			c-0.437,5.579-0.961,12.29-0.3,18.007c-0.043,2.055-0.043,7.549,0,9.604c0,0.302,0,0.602,0,0.898
			c-0.705,0.299-1.477,0.527-2.4,0.603c-1.357,0.94-3.544,1.06-5.4,1.5c-0.668,0.233-1.172,0.63-2.103,0.603
			c-1.478,0.323-2.802,0.797-4.203,1.197c-0.562-0.346-2.933,0.057-3.301,0.901c-0.935,0.167-1.954,0.245-2.7,0.601
			c-0.436-0.89-1.171,0.396-2.1,0c-0.529,0.174-1.766-0.361-1.801,0.303c-1.345-0.444-0.922,0.877-2.101,0.598
			c-4.213,1.092-8.692,1.912-12.905,3.002c-1.426-0.126-2.166,0.436-3.302,0.6c-1.133-0.229-1.437,0.366-2.399,0.301
			c-1.801,0.102-2.975,0.828-4.504,1.201c-1.442,0.758-3.69,0.707-5.102,1.5c-1.01,0.19-2.188,0.213-2.701,0.9
			c-1.049-0.051-1.921,0.08-2.4,0.601c-0.845,0.654-3.127-0.126-3.9,0.599c-1.546-0.244-1.92,0.685-3.001,0.902
			c-0.483-0.087-0.517,0.282-0.899,0.299c-0.975,0.754-2.533,0.09-3.302-0.299c-0.664-0.592,0.587-2.187-0.3-3.002
			c0.785-1-0.428-2.562,0-4.199c0-0.805,0-1.603,0-2.403c-0.057-0.241-0.301-0.3-0.301-0.599c0.086-0.756-0.289-1.742-0.301-3.304
			c0-0.5,0-0.999,0-1.5c-0.406-4.844-0.066-8.142-0.299-12.903C98.577,105.391,129.636,104.954,151.968,96.786z"/>
		<path fill="#376564" d="M133.062,97.985c1.064,0.146,2.168-1.21,2.701-0.599c-9.743,5.762-24.469,8.143-36.314,10.803
			c-0.234-1.538,1.562-1.039,2.402-1.5c0.186-0.417,1.156-0.046,1.201-0.603c1.094-0.403,2.615-0.385,3.301-1.198
			c0.828-0.272,2.107-0.093,2.701-0.601c3.801-0.873,5.734-1.826,9.602-2.701c0.536-0.267,0.766-0.838,1.803-0.601
			c1.389-0.114,2.426-0.573,3.602-0.901c0.1,0,0.199,0,0.3,0c0.476-0.022,1.146,0.146,1.201-0.299
			c1.342,0.041,1.873-0.729,2.702-1.201c0.994,0.096,1.844,0.047,2.101-0.601C130.74,98.331,132.726,98.589,133.062,97.985z"/>
		<path fill="#0D0D0D" d="M126.759,97.387c0.291,1.092-1.461,0.138-0.898,1.5c-0.484,0.085-0.518-0.284-0.902-0.3
			c-0.218,0.818,0.598,0.604,0.603,1.199c-0.056,0.445-0.728,0.277-1.201,0.301c-0.108-0.51,0.233-0.566,0.601-0.601
			c-0.634-0.268-0.52-1.28-1.5-1.2C124.419,97.847,125.4,97.427,126.759,97.387z"/>
		<path d="M123.46,98.286c0.979-0.08,0.865,0.934,1.498,1.2c-0.365,0.034-0.709,0.091-0.6,0.601c-0.1,0-0.2,0-0.3,0
			c-0.302,0-0.601,0-0.9,0c0.058-0.243,0.302-0.299,0.302-0.601c-0.242,0.259-0.822,0.179-0.9,0.601
			c-0.514-0.097,0.275-0.928-0.602-1.2c0-0.101,0-0.2,0-0.3C122.393,98.423,123.509,98.938,123.46,98.286z"/>
		<path fill="#0D0D0D" d="M120.458,99.187c0.571-0.127,0.543-0.857,1.5-0.6c0,0.1,0,0.199,0,0.3c0.877,0.272,0.088,1.104,0.602,1.2
			c0.078-0.422,0.658-0.342,0.9-0.601c0,0.302-0.244,0.357-0.302,0.601c0.302,0,0.601,0,0.9,0c-1.175,0.326-2.214,0.787-3.601,0.9
			c0.293-0.406,0.799-0.6,1.198-0.9C121.575,99.47,120.54,99.805,120.458,99.187z"/>
		<path d="M119.255,99.486c0.567,0.068,0.666-0.339,1.203-0.3c0.082,0.618,1.116,0.283,1.198,0.9
			c-0.399,0.301-0.905,0.494-1.198,0.9c-1.039-0.238-1.268,0.333-1.804,0.602c0.365-0.6,0.249-1.283,0-1.502
			C118.73,99.761,119.253,99.882,119.255,99.486z"/>
		<path fill="#070707" d="M119.255,99.486c-0.002,0.396-0.524,0.274-0.601,0.601c0.249,0.219,0.365,0.902,0,1.5
			c-3.866,0.875-5.801,1.828-9.601,2.701c-1.252-0.686-0.203-0.632,0.898-0.9c-0.051-0.352-0.547-0.254-0.898-0.301
			c-0.932-0.662,2.15,0.177,1.8-0.899C113.999,101.628,115.917,99.849,119.255,99.486z"/>
		<path fill="#0D0D0D" d="M96.448,103.987c-1.574-1.726-2.949-3.65-4.201-5.701c0.625-0.65,0.971,0.037,1.5,0.301
			c1.223,1.576,2.616,2.985,3.602,4.802C96.837,103.374,96.572,103.61,96.448,103.987z"/>
		<path fill="#0D0D0D" d="M106.054,103.688c1.468-0.633,2.964-1.236,4.801-1.501c0.352,1.076-2.73,0.238-1.801,0.899
			c0.354,0.047,0.85-0.051,0.9,0.301c-1.104,0.269-2.152,0.215-0.9,0.9c-0.594,0.508-1.873,0.328-2.701,0.601
			C106.432,104.374,106.993,103.708,106.054,103.688z"/>
		<path d="M103.052,104.589c1.631,0.332,1.58-1.02,3.002-0.9c0.938,0.02,0.378,0.686,0.299,1.2
			c-0.686,0.813-2.207,0.795-3.301,1.198C102.647,105.763,104.304,105.331,103.052,104.589z"/>
		<path fill="#0D0D0D" d="M100.951,105.488c0.513-0.487,1.091-0.909,2.101-0.899c1.252,0.742-0.403,1.173,0,1.498
			c-0.045,0.557-1.017,0.186-1.2,0.603C102.423,105.579,101.661,105.94,100.951,105.488z"/>
		<path fill="#111313" d="M93.447,107.591c-0.379,0.352-0.239,1.246,0.601,1.199c-0.043,0.656-0.756,0.645-1.5,0.601
			c0.904-0.394,0.22-0.956-0.6-1.201C91.991,107.534,92.704,107.546,93.447,107.591z"/>
		<path d="M89.847,108.49c0.947,0.146,1.06-0.54,2.101-0.301c0.819,0.245,1.504,0.808,0.601,1.201
			c-0.567-0.067-0.664,0.338-1.201,0.3c-0.002-0.301,0.244-0.357,0.301-0.602C90.7,108.624,89.856,109.454,89.847,108.49z"/>
		<path fill="#070707" d="M89.546,108.79c0.019-0.184,0.045-0.355,0.301-0.3c0.01,0.964,0.854,0.134,1.801,0.599
			c-0.057,0.244-0.303,0.301-0.301,0.602c0.537,0.038,0.634-0.368,1.201-0.3c-0.252,0.348-0.396,0.805-0.301,1.502
			c-0.242,0.056-0.299,0.299-0.6,0.299c-0.023-0.522,0.066-0.935,0.3-1.201c-0.974-0.173-1.397,0.206-2.101,0.3
			c0.221-0.279,0.545-0.453,0.9-0.6C90.665,109.071,89.419,109.62,89.546,108.79z"/>
		<path fill="#0D0D0D" d="M78.742,115.093c0,0.199,0,0.4,0,0.6c0.511,0.109,0.566-0.234,0.601-0.6
			c0.244,0.057,0.299,0.301,0.601,0.299c-0.12,0.779-0.896,0.906-0.901,1.802c-0.099,0-0.199,0-0.3,0
			c0.207-0.808-0.62-0.58-0.899-0.899C78.145,115.893,78.126,115.177,78.742,115.093z"/>
		<path fill="#0D0D0D" d="M76.042,120.192c0.158-1.04,0.812-1.587,1.199-2.398c0.105,0.344,0.529,0.761,0.602,0.3
			c0.938-0.093-0.762,0.868,0.299,0.899c-0.385,1.115-0.901,2.101-1.5,3.002C76.533,120.759,77.281,119.505,76.042,120.192z"/>
		<path fill="#6D6861" d="M79.343,122.895c0.605-0.594-0.043-2.444,1.5-2.099c-0.553,4.274,0.156,7.963,0,12.603
			c0.197,1.905-0.396,4.597,0.3,6.002c0.194,1.406-0.392,3.595,0.301,4.503c0.231,2.745-1.187,5.881,0.899,6.602
			c0.25,0.785-0.906,1.646,0,2.103c-0.416,0.384-0.184,1.417-0.6,1.8c-3.109-3.542-3.417-9.025-4.802-13.203
			c0-2.402,0-4.805,0-7.203C77.38,129.854,78.169,126.796,79.343,122.895z"/>
		<path fill="#0D0D0D" d="M80.843,133.398c0.156-4.64-0.553-8.327,0-12.603c-1.543-0.346-0.896,1.505-1.5,2.099
			c-0.033-0.733-0.992-0.063-0.9,0.3c-0.532-1.199,1.189-0.841,0.9-2.699c-0.719-0.119,0.166,1.365-0.9,0.899
			c0.418-0.383,0.13-1.47,0.9-1.501c0.156,0.857,0.443-0.482,0.601-0.602c0.254,0.947,1.062,1.34,1.501,2.103
			c0.678-0.167-0.365-0.467,0.301-0.899c0.231,4.762-0.109,8.061,0.299,12.903c-0.291,0.008-0.232,0.367-0.299,0.601
			C81.438,133.804,81.434,133.31,80.843,133.398z"/>
		<path fill="#9F722A" d="M160.671,135.798c-1.514-0.604-3.291,1.106-4.803,1.502c-0.435,0.164-1.55-0.353-1.5,0.301
			c-1.306,0.296-2.854,0.347-3.9,0.898c-3.221-0.218-5.188,0.814-7.803,1.201c-1.162-0.162-1.468,0.535-2.703,0.301
			c-1.457,0.141-2.679,0.521-3.9,0.899c-0.1,0-0.199,0-0.299,0c0.039-0.737,0.047-1.446-0.301-1.8c0.35,0.048,0.533-0.066,0.6-0.303
			c0.54,0.039,0.635-0.366,1.199-0.299c2.102-0.803,5.388-0.416,6.904-1.801c4.555-1.083,8.867-1.342,12.604-2.701
			c0.119-0.719-1.367,0.166-0.9-0.899c1.998-0.786,4.021,0.43,5.403,1.198C161.138,134.865,161.682,136.108,160.671,135.798z"/>
		<path fill="#1B1610" d="M74.24,134.298c0.124,0.378,0.388,0.615,0.9,0.601c-0.078,1.274,1.167,1.394-0.3,1.802c0-0.501,0-1,0-1.5
			c-1.358,0.041-0.767,2.035-0.901,3.301c-1.104-1.061,0.117-2.969-0.299-4.203C73.841,134.298,74.04,134.298,74.24,134.298z"/>
		<path fill="#0D0D0D" d="M151.068,133.099c-0.386,0.708,0.038,0.558-0.3,1.5c-2.119,0.326-2.156-0.238-3.301,0.9
			c-0.086-0.484,0.281-0.517,0.301-0.9c-0.919-0.016-0.723,1.082-1.803,0.9c0.084-0.484-0.284-0.517-0.299-0.9
			C147.524,134.159,149.71,134.04,151.068,133.099z"/>
		<path d="M82.044,134.898c0.012,1.562,0.387,2.548,0.301,3.304c-0.612,0.603-0.588-0.135-1.201-0.302
			c-0.176-1.394,0.41-1.812,0-2.7c0.369,0.334,0.617,0.26,0.602-0.302C81.843,134.898,81.944,134.898,82.044,134.898z"/>
		<path fill="#513B19" d="M155.87,137.3c1.51-0.396,3.288-2.106,4.803-1.502c-0.771,0.233-1.701,0.303-2.104,0.902
			C157.768,136.999,156.987,137.317,155.87,137.3z"/>
		<path fill="#0D0D0D" d="M139.362,136.398c1.4-0.401,2.727-0.874,4.203-1.198c0.895,0.43-0.788,1.562,0.6,1.5
			c-1.517,1.385-4.803,0.998-6.902,1.801c0.693-0.508,0.939-1.461,2.101-1.5C139.182,136.731,139.003,136.462,139.362,136.398z"/>
		<path fill="#1B1610" d="M139.362,136.398c-0.359,0.063-0.181,0.333,0,0.603c-1.16,0.039-1.406,0.992-2.102,1.5
			c-0.564-0.067-0.659,0.338-1.199,0.3c0.896-0.429,0.005-0.927,0.9-1.5c-0.131-0.443-0.383,0.118-0.9,0
			C136.431,136.456,138.802,136.053,139.362,136.398z"/>
		<path fill="#0D0D0D" d="M135.462,139.102c-0.699,0-1.399,0-2.101,0c0.414-0.687-0.772-1.13,0-1.201
			c0.746-0.354,1.767-0.435,2.7-0.601c0.52,0.119,0.77-0.443,0.9,0c-0.896,0.574-0.004,1.072-0.9,1.5
			C135.997,139.036,135.812,139.149,135.462,139.102z"/>
		<path d="M129.462,138.202c0.399,0,0.801,0,1.199,0c-0.363,0.438-1.312,0.286-0.9,1.498c-0.522-0.021-0.935,0.068-1.199,0.303
			c-0.293-0.31-0.594-0.607-0.9-0.9c-0.736,0.033-0.062,0.991,0.301,0.9c-1.551-0.086-2.367,1.387-4.803,1.201
			c-1.037-1.104,3.692-0.022,4.203-2.403C128.54,139.079,128.117,137.757,129.462,138.202z"/>
		<path d="M133.361,137.9c-0.772,0.071,0.414,0.517,0,1.201c-0.224,0.677-1.683,0.116-2.399,0.299c-0.102,0-0.201,0-0.301,0
			c0.664-0.696,0.266-0.803,0.602-1.5C132.19,138.296,132.925,137.011,133.361,137.9z"/>
		<path fill="#070707" d="M72.141,137.601c1.225-0.094,0.159,0.626,0.3,1.199c0.197,0.9,0.641-0.287,1.2,0
			c-0.304,1.648-2.125,0.591-2.4-0.301c0-0.101,0-0.199,0-0.297C71.712,138.171,72.28,138.24,72.141,137.601z"/>
		<path fill="#111313" d="M131.261,137.9c-0.336,0.697,0.063,0.804-0.601,1.5c0.101,0,0.199,0,0.3,0
			c-0.057,0.443-0.725,0.275-1.199,0.3c-0.411-1.212,0.537-1.062,0.899-1.498c-0.399,0-0.8,0-1.2,0
			C129.497,137.54,130.732,138.073,131.261,137.9z"/>
		<path fill="#0D0D0D" d="M142.667,139.7c2.613-0.386,4.582-1.418,7.803-1.199c-0.051,0.35,0.064,0.535,0.3,0.602
			c-0.486,0.914-1.444-0.999-2.101,0c0.252,0.445,0.963,0.434,1.5,0.6c-0.869,0.795-1.168-0.096-2.399,0.898
			c-0.345-0.943,0.471-0.729,0.6-1.199c-0.655-0.053-0.956,0.245-0.899,0.9c-0.766-0.139-1.217-0.586-1.502-1.199
			C146.393,140.193,143.47,140.89,142.667,139.7z"/>
		<path fill="#070707" d="M87.146,148.405c-0.461,0.997,0.22,2.42,0.9,1.801c0.304,0.901-0.668,0.53-1.199,0.601
			c0.049-0.95-0.799-1.003-0.602-2.103C86.628,148.688,86.661,148.318,87.146,148.405z"/>
		<path d="M90.146,147.503c1.231-0.101-0.683,0.857,0,2.102c1.041-0.159,1.599-0.804,2.7-0.9c-0.158,0.242-0.312,0.488-0.299,0.9
			c1.734,0.035,1.576-1.822,3.602-1.501c0.165-0.664-0.574-0.427-0.602-0.899c1.242-0.078,1.207,0.356,0.899,1.201
			c0.613-0.167,0.589-0.904,1.199-0.302c0.437-0.132-0.026-0.263,0-0.601c0.53-0.557,0.933,0.078,1.2,0.601
			c0.354-0.048,0.255-0.547,0.302-0.899c0.621-0.178,1.972,0.371,2.103-0.3c0.1,0,0.199,0,0.299,0
			c-0.305,0.396-0.293,1.106-0.6,1.501c-1.971-0.07-3.021,0.78-4.503,1.199c-0.299,0-0.599,0-0.899,0
			c-0.039-0.539,0.369-0.634,0.301-1.199c-1.193,0.406-1.721,1.479-3.002,1.801c-3.276,0.873-7.504,2.233-10.504,2.4
			c-0.906-0.455,0.25-1.316,0-2.102c-2.086-0.721-0.668-3.856-0.899-6.603c-0.119-1.528,0.169-4.22,0-4.802
			c0.093-0.408,0.751-0.25,1.2-0.303c0,0.803,0,1.601,0,2.404c-1.289,0.944-0.062,2.404-0.9,3.297
			c0.268,0.828,1.219-0.696,0.9,0.902c0.887,0.814-0.363,2.41,0.3,3.002c0.769,0.389,2.327,1.053,3.302,0.299
			c-0.197,1.1,0.648,1.151,0.6,2.103c0.533-0.069,1.504,0.302,1.201-0.601c-0.682,0.618-1.362-0.804-0.901-1.801
			C88.227,148.187,88.601,147.257,90.146,147.503z"/>
		<path fill="#1B1610" d="M92.847,150.206c1.281-0.32,1.81-1.395,3.002-1.801c0.066,0.565-0.34,0.66-0.301,1.199
			c0.301,0,0.602,0,0.899,0C95.509,150.066,94.126,150.081,92.847,150.206z"/>
		<path fill="#0D0D0D" d="M136.062,140.901c1.223-0.38,2.443-0.76,3.9-0.898C139.206,141.562,137.62,141.479,136.062,140.901z"/>
		<path fill="#0D0D0D" d="M123.158,141.501c-4.26,0.24-7.21,1.795-11.403,2.101c0.922-0.478,2.351-0.45,3.301-0.899
			c-0.258-0.242-0.18-0.822-0.6-0.899c4.213-1.091,8.692-1.91,12.905-3.002c-0.511,2.381-5.239,1.299-4.203,2.403
			C123.158,141.302,123.158,141.401,123.158,141.501z"/>
		<path fill="#070707" d="M111.154,142.401c1.136-0.164,1.876-0.726,3.302-0.6c0.42,0.078,0.342,0.658,0.6,0.898
			c-0.95,0.45-2.379,0.424-3.301,0.9c0.051,0.652-1.063,0.137-1.5,0.302c0.092-0.409,0.748-0.251,1.199-0.302
			C110.929,142.991,111.677,143.014,111.154,142.401z"/>
		<path fill="#070707" d="M161.872,143.302c0.697-0.404,1.704-0.495,2.399-0.9c0.159-1.941,0.592-3.611,1.503-4.801
			c0,0.3,0,0.602,0,0.898c-0.486,2.519-0.764,5.24-3.902,5.103C161.872,143.503,161.872,143.401,161.872,143.302z"/>
		<path fill="#376564" d="M113.554,144.803c-1.949-0.148-3.286,0.315-4.5,0.899c-1.652,0.049-3.262,0.142-4.504,0.602
			c-1.141,0.06-2.135,0.266-3,0.601c-0.1,0-0.199,0-0.299,0c-0.438-0.165-1.553,0.353-1.502-0.302
			c1.653-0.547,3.717-0.684,5.103-1.501c0.848,0.249,0.776-0.421,1.501-0.299c1.605-0.644,2.507-0.128,3.9-0.899
			c0.438-0.165,1.551,0.352,1.502-0.302c4.192-0.306,7.144-1.858,11.402-2.101c2.346,0.045,3.734-0.869,5.402-1.5
			c0.266-0.232,0.677-0.322,1.199-0.302c0.477-0.024,1.145,0.145,1.201-0.3c0.717-0.184,2.178,0.378,2.399-0.299
			c0.7,0,1.401,0,2.101,0c0.349,0.354,0.34,1.062,0.301,1.8c-2.957,0.995-8.971,0.361-9.602,2.7
			C123.048,141.792,117.938,144.968,113.554,144.803z"/>
		<path d="M108.755,142.702c0.963,0.065,1.268-0.529,2.399-0.301c0.522,0.612-0.226,0.59,0.3,1.2
			c-0.451,0.051-1.107-0.106-1.199,0.302c-1.396,0.771-2.295,0.256-3.901,0.899C106.888,143.839,108.675,144.124,108.755,142.702z"
			/>
		<path fill="#0D0D0D" d="M82.645,141.204c-0.427,1.637,0.786,3.199,0,4.199c0.317-1.6-0.634-0.074-0.899-0.902
			C82.581,143.608,81.355,142.148,82.645,141.204z"/>
		<path fill="#070707" d="M104.852,145.102c-1.386,0.817-3.448,0.954-5.103,1.501c-1.357,0.227,0.461-0.823-0.9-0.6
			c0.057-0.242,0.303-0.301,0.301-0.601c1.41-0.793,3.658-0.741,5.102-1.5C104.32,144.436,103.948,145.405,104.852,145.102z"/>
		<path fill="#1B1610" d="M75.441,142.702c0.435,0.102,0.997,1.559,1.201,0.899c1.11,0.749-1.142,0.632-0.601,1.802
			c-0.604,0.102-0.939-0.062-0.901-0.601C76.409,145.54,75.243,143.585,75.441,142.702z"/>
		<path fill="#0D0D0D" d="M96.448,146.304c0.514-0.688,1.691-0.71,2.701-0.9c0.002,0.301-0.244,0.357-0.301,0.6
			c1.361-0.224-0.457,0.826,0.9,0.601c-0.051,0.653,1.063,0.138,1.502,0.302c-0.132,0.672-1.48,0.122-2.103,0.299
			c-0.047,0.354,0.053,0.854-0.302,0.9c-0.27-0.521-0.67-1.156-1.2-0.602c-0.345-0.442-0.345-0.756,0-1.198
			C96.831,146.276,97.044,146.803,96.448,146.304z"/>
		<path fill="#070707" d="M109.054,145.704c-0.039,0.662-1.273,0.127-1.801,0.299c-0.14,0.938,0.64,0.959,1.5,0.901
			c0.051,0.649-1.062,0.134-1.5,0.3c-0.271-0.623-1.121-0.897-2.703-0.899C105.792,145.844,107.401,145.751,109.054,145.704z"/>
		<path fill="#111313" d="M94.048,146.904c0.479-0.521,1.351-0.649,2.399-0.601c0.597,0.499,0.382-0.027,1.199,0
			c-0.345,0.443-0.345,0.756,0,1.199c-0.026,0.339,0.437,0.469,0,0.601c-0.61-0.603-0.586,0.135-1.199,0.302
			c0.308-0.845,0.341-1.279-0.899-1.201C94.7,147.452,94.771,146.78,94.048,146.904z"/>
		<path d="M104.55,146.304c1.582,0.002,2.432,0.275,2.703,0.898c-0.726-0.123-0.653,0.549-1.5,0.301
			c-1.873-0.762-3.395,1.658-4.203,0c2.199,0.89,0.561-1.158,2.4-0.301C104.364,146.902,103.824,146.708,104.55,146.304z"/>
		<path fill="#376564" d="M119.855,145.704c-5.028,1.07-9.694,2.508-14.401,3.9c0.215-0.917-0.308-1.095-0.303-1.8
			c0.348,0.047,0.534-0.066,0.602-0.302c0.848,0.248,0.775-0.424,1.5-0.301c0.438-0.164,1.551,0.352,1.502-0.299
			c3.33-1.314,7.683-0.512,10.502-1.803C120.462,145.04,120.599,145.179,119.855,145.704z"/>
		<path d="M134.261,146.904c3.541-0.263,2.947-0.14,0.302,0.599c-0.2,0-0.399,0-0.601,0c-1.516-0.201-3.033,1.156-4.201,0.303
			C131.481,147.726,132.882,147.325,134.261,146.904z"/>
		<path fill="#070707" d="M124.059,148.405c2.116-0.865,5.784-1.488,9.303-1.803c0.05,0.352,0.546,0.255,0.899,0.302
			c-1.379,0.421-2.779,0.821-4.5,0.9c-0.457,1.042-2.639,0.362-3.301,1.198c-0.851-0.248-0.779,0.424-1.502,0.302
			c-0.066-0.233-0.009-0.593-0.301-0.601C124.591,148.472,124.407,148.355,124.059,148.405z"/>
		<path fill="#070707" d="M95.548,147.204c0.026,0.474,0.767,0.235,0.602,0.899c-2.025-0.321-1.867,1.536-3.602,1.501
			c-0.014-0.412,0.141-0.658,0.299-0.9c-1.104,0.098-1.66,0.741-2.7,0.9c-0.683-1.243,1.231-2.201,0-2.102
			c0.774-0.726,3.056,0.056,3.901-0.6C94.771,146.78,94.7,147.452,95.548,147.204z"/>
		<path fill="#111313" d="M91.947,35.563c2.19,0.09,3.437-0.765,5.401-0.899c-3.482,1.619-4.639,1.576-8.402,2.101
			c0-0.101,0-0.2,0-0.3C89.599,35.815,91.65,36.567,91.947,35.563z"/>
		<path fill="#343231" d="M72.44,40.065c1.855-0.444,3.747-0.854,5.701-1.2c-0.575,1.225-2.787,0.814-4.202,1.2
			C73.44,40.065,72.94,40.065,72.44,40.065z"/>
		<path fill="#0D0D0D" d="M69.138,40.666c1.4,0.1,2.367-0.234,3.303-0.601c0.5,0,1,0,1.5,0c-1.471,0.629-3.285,0.916-5.102,1.201
			C68.896,41.022,69.14,40.967,69.138,40.666z"/>
		<path fill="#494644" d="M48.432,43.968c-1.751,0.75-3.421,1.581-6.003,1.5c1.119-0.281,1.996-0.806,3.302-0.9
			C46.477,44.211,47.497,44.133,48.432,43.968z"/>
		<path fill="#070707" d="M42.13,53.57c0.662,0.739,1.483,1.316,1.799,2.401c0.014,0.513-0.223,0.778-0.6,0.901
			c-1.212-0.188-1.051-1.75-1.8-2.402C41.517,53.957,41.753,53.693,42.13,53.57z"/>
		<path fill="#0D0D0D" d="M35.827,66.775c-0.537-1.57-0.994-4.801-0.3-6.604C35.311,62.689,35.853,64.448,35.827,66.775z"/>
		<path fill="#070707" d="M72.74,70.978c1.58-0.515-1.821-1.103,0-1.801c1.164,0.836,1.923,2.079,2.701,3.302c0,0.4,0,0.8,0,1.2
			c-0.302,0.001-0.356-0.242-0.601-0.3C73.663,73.057,73.524,71.693,72.74,70.978z"/>
		<path fill="#0D0D0D" d="M139.663,83.582c1.23-2.772,2.141-5.864,3.301-8.703c0.302,0,0.603,0,0.902,0
			c-0.457,3.545-2.164,5.84-3.301,8.703C140.052,83.518,139.788,84.093,139.663,83.582z"/>
		<path fill="#1B1610" d="M59.535,79.68c0.616,0.584,0.986,1.415,1.501,2.101c-1.187-0.051,0.096,0.462-0.601,0.9
			c-0.771-0.63-1.529-1.272-1.802-2.401C58.989,80.135,59.315,79.959,59.535,79.68z"/>
		<path fill="#0D0D0D" d="M136.962,91.385c-0.209-1.612,0.512-2.294,0.901-3.303c0.902-0.303,0.531,0.669,0.601,1.2
			c-0.523,0.676-0.154,2.248-0.9,2.701C137.431,91.718,137.3,91.447,136.962,91.385z"/>
		<path fill="#9F722A" d="M158.27,90.184c1.118-0.293,2.918-1.129,4.202-0.3c-7.461,3.943-15.954,6.853-25.809,8.402
			c-0.227-1.929,1.424-1.977,2.698-2.401c1.106-0.193,2.293-0.308,3.003-0.9c2.428-1.374,6.227-1.375,8.703-2.7
			c1.234,0.172,2.298-0.916,3.9-1.199c1.097,0.193,1.599-0.203,2.102-0.602C157.698,90.611,157.865,90.278,158.27,90.184z"/>
		<path fill="#111313" d="M153.769,103.987c-1.07-1.628,0.665-6.064-0.898-7.201c-0.301,0-0.602,0-0.9,0
			c0.037-0.664,1.271-0.129,1.8-0.301C153.769,98.986,153.769,101.488,153.769,103.987z"/>
		<path fill="#0D0D0D" d="M157.97,101.288c-0.574,2.825-0.635,6.166-0.602,9.604c-0.1,0-0.199,0-0.299,0
			c0.085-3.816-0.188-7.991,0.898-10.807C157.97,100.486,157.97,100.888,157.97,101.288z"/>
		<path fill="#1B1610" d="M75.742,103.987c1.392,1.01,2.259,2.543,3.3,3.903c-0.267,0.132-0.537,0.263-0.6,0.6
			c-1.205-1.295-1.993-3.009-3.302-4.202C75.374,104.222,75.733,104.28,75.742,103.987z"/>
		<path fill="#343231" d="M157.37,110.893c-0.033-3.438,0.025-6.778,0.6-9.604c0.105,3.606-0.532,6.471-0.301,10.205
			c-0.1,0-0.199,0-0.299,0C157.37,111.292,157.37,111.091,157.37,110.893z"/>
		<path fill="#9F722A" d="M94.048,108.79c1.211-0.199,2.881-1.166,3.899-0.601c0,0.2,0,0.401,0,0.601
			c-1.239,1.359-3.496,1.705-5.702,2.103c-0.095-0.697,0.049-1.154,0.301-1.502C93.292,109.435,94.003,109.446,94.048,108.79z"/>
		<path d="M78.742,115.093c1.406-1.856,1.558-5.073-0.3-6.604c0.062-0.337,0.333-0.468,0.6-0.6c0.569,0.729,1.342,1.259,1.2,2.699
			c3.159,1.154,5.664-1.651,9.304-1.799c-0.127,0.828,1.119,0.28,1.203,0.899c-0.356,0.146-0.682,0.32-0.902,0.601
			c-2.514-0.264-3.752,2.18-6.301,0.9c-0.144,1.418-3.215,2.072-3.602,4.201c-0.301,0.002-0.357-0.242-0.602-0.299
			c-0.033,0.365-0.088,0.709-0.6,0.6C78.742,115.493,78.742,115.292,78.742,115.093z"/>
		<path fill="#9F722A" d="M91.647,111.19c-5.757,1.245-10.238,3.77-12.305,8.703c-0.771,0.031-0.482,1.118-0.9,1.501
			c-1.673,4.737-2.574,8.979-3.302,13.504c-0.513,0.015-0.776-0.223-0.9-0.601c0.16-2.18,0.614-3.84,0-6.002
			c0.833-1.168,1.595-2.405,1.802-4.2c-0.297-1.196,0.896-0.903,0.601-2.103c0.599-0.9,1.114-1.886,1.5-3
			c0.268-0.533,0.838-0.763,0.601-1.801c0.1,0,0.201,0,0.301,0c0.006-0.896,0.78-1.021,0.9-1.802
			c0.387-2.128,3.458-2.782,3.602-4.201c2.549,1.279,3.787-1.164,6.301-0.901c0.705-0.095,1.128-0.474,2.102-0.3
			C91.714,110.257,91.624,110.667,91.647,111.19z"/>
		<path fill="#5C5755" d="M157.669,113.894c0,2.799,0,5.6,0,8.4c-0.1,0-0.199,0-0.299,0c0-0.1,0-0.2,0-0.301c0-3.5,0-7,0-10.503
			c0.1,0,0.199,0,0.299,0C157.669,112.292,157.669,113.091,157.669,113.894z"/>
		<path fill="#D3D1D1" d="M157.669,122.294c0-2.801,0-5.603,0-8.4c0.102,0,0.201,0,0.301,0c0,2.4,0,4.801,0,7.201
			c0,0.801,0,1.6,0,2.4c-0.1,0-0.199,0-0.301,0C157.669,123.096,157.669,122.694,157.669,122.294z"/>
		<path d="M78.742,117.193c0.238,1.038-0.333,1.269-0.601,1.8c-1.062-0.031,0.638-0.992-0.299-0.899
			c-0.072,0.461-0.494,0.044-0.602-0.3c0.129-0.57,0.646-0.756,0.602-1.5C78.122,116.613,78.949,116.386,78.742,117.193z"/>
		<path fill="#161919" d="M157.37,121.995c-0.822-2.857-0.033-7.089-0.3-11.103c0.101,0,0.199,0,0.3,0c0,0.198,0,0.399,0,0.599
			C157.37,114.993,157.37,118.495,157.37,121.995z"/>
		<path d="M73.94,125.896c0.438-2.164,1.531-3.672,2.102-5.703c1.24-0.688,0.492,0.566,0.602,1.803
			c0.296,1.197-0.898,0.904-0.602,2.102c-0.519,0.806-0.959,2.867-2.102,2.1C73.94,126.096,73.94,125.995,73.94,125.896z"/>
		<path fill="#827D7A" d="M158.569,128.596c-0.829-1.17-0.51-3.486-0.9-5.101c0.102,0,0.201,0,0.301,0
			C158.302,125.062,158.691,126.577,158.569,128.596z"/>
		<path fill="#0D0D0D" d="M73.94,125.896c0,0.1,0,0.2,0,0.3c1.143,0.769,1.583-1.294,2.102-2.1c-0.205,1.795-0.968,3.032-1.801,4.2
			c-0.566,0.227-0.208,0.896-0.9,0.3c0.408,1.454-0.168,2.02,0.601,3.002c-0.399,0-0.8,0-1.199,0
			c-0.172,0.528,0.362,1.763-0.3,1.801C72.218,130.173,73.177,128.134,73.94,125.896z"/>
		<path fill="#212221" d="M161.571,130.097c-1.838,0.139-2.396-1.001-3.602-1.501c-0.389-1.909-0.774-3.824-0.602-6.302
			c0.102,0,0.2,0,0.301,0c0,0.399,0,0.802,0,1.201c0.391,1.613,0.07,3.93,0.899,5.101C159.509,129.161,160.9,129.27,161.571,130.097
			z"/>
		<path fill="#161919" d="M153.468,131.598c-0.041-2.054-0.041-7.55,0-9.604C153.956,124.591,153.956,129.001,153.468,131.598z"/>
		<path fill="#161919" d="M165.472,135.798c-1.523,0.103-1.508-2.623,0-2.399C165.268,134.528,165.268,134.669,165.472,135.798z"/>
		<path fill="#9F722A" d="M73.94,138.499c0.135-1.265-0.457-3.259,0.9-3.299c0,0.5,0,0.998,0,1.5
			c-0.012,0.725,0.563,3.155,0.301,5.102C73.947,141.497,74.491,139.45,73.94,138.499z"/>
		<path fill="#111313" d="M82.044,134.898c-0.1,0-0.199,0-0.299,0c0.016,0.562-0.232,0.636-0.602,0.302
			c0.41,0.889-0.176,1.307,0,2.7c0,0.499,0,1.001,0,1.5c-0.696-1.405-0.104-4.097-0.299-6.002c0.589-0.089,0.595,0.405,0.9,0.601
			c0.066-0.232,0.008-0.593,0.299-0.601C82.044,133.899,82.044,134.398,82.044,134.898z"/>
		<path fill="#070707" d="M76.941,141.204c-0.681-2.863-0.132-6.434-0.899-8.104c0.873-1.049,0.738,0.937,0.899,0.899
			C76.941,136.398,76.941,138.8,76.941,141.204z"/>
		<path fill="#161919" d="M123.158,141.204c2.435,0.186,3.252-1.287,4.804-1.201c-0.365,0.091-1.037-0.867-0.302-0.9
			c0.308,0.293,0.607,0.592,0.9,0.9c-1.668,0.631-3.058,1.543-5.402,1.5C123.158,141.401,123.158,141.302,123.158,141.204z"/>
		<path fill="#0D0D0D" d="M81.443,143.903c-0.692-0.908-0.106-3.097-0.301-4.503c0-0.499,0-1.001,0-1.5
			c0.612,0.167,0.588,0.903,1.2,0.302c0,0.299,0.244,0.356,0.301,0.599c-0.449,0.052-1.107-0.106-1.2,0.302
			C81.612,139.684,81.325,142.374,81.443,143.903z"/>
		<path fill="#0D0D0D" d="M104.251,143.903c1.529-0.374,2.703-1.101,4.504-1.201c-0.08,1.422-1.865,1.137-2.401,2.102
			c-0.726-0.122-0.653,0.548-1.501,0.299C103.948,145.405,104.32,144.436,104.251,143.903z"/>
		<path fill="#111313" d="M161.872,143.602c-3.259-0.058-5.428,0.978-8.402,1.201c-0.2,0-0.4,0-0.6,0
			c2.413-0.912,6.633-1.533,9.002-1.501C161.872,143.401,161.872,143.503,161.872,143.602z"/>
		<path fill="#494644" d="M161.872,143.602c-2.24,0.86-5.316,0.888-7.803,1.5c-0.199,0-0.4,0-0.602,0c0-0.099,0-0.2,0-0.299
			C156.444,144.579,158.613,143.544,161.872,143.602z"/>
		<path fill="#705221" d="M75.441,142.702c-0.198,0.883,0.968,2.838-0.301,2.102c-0.688-0.85-1.021-1.387-0.601-2.699
			C75.054,142.089,75.318,142.327,75.441,142.702z"/>
		<path fill="#111313" d="M109.054,145.704c1.214-0.584,2.551-1.05,4.5-0.9c-0.031,0.566-0.992,0.209-0.899,0.9
			C110.833,144.029,110.726,147.309,109.054,145.704z"/>
		<path fill="#0D0D0D" d="M119.255,145.102c0.849-0.451,2.071-0.528,3.304-0.601c-0.134,1.168-1.707,0.897-2.703,1.201
			C120.599,145.179,120.462,145.04,119.255,145.102z"/>
		<path fill="#5C5755" d="M149.268,146.003c-2.013-0.213-3.293,0.309-5.103,0.301c-0.201,0-0.399,0-0.601,0
			c2.546-1.158,6.728-0.676,9.903-1.202c0.199,0,0.399,0,0.601,0c0.136,0.837-1.637-0.235-1.5,0.603
			C151.559,145.893,149.782,145.317,149.268,146.003z"/>
		<path fill="#0D0D0D" d="M101.55,146.904c0.865-0.335,1.859-0.541,3-0.601c-0.727,0.404-0.187,0.599-0.6,0.898
			c-1.841-0.857-0.201,1.189-2.4,0.301c0.81,1.658,2.33-0.762,4.203,0c-0.067,0.234-0.254,0.349-0.603,0.302
			c-1.666-0.066-2.17,1.028-4.2,0.601C101.257,148.011,101.245,147.298,101.55,146.904z"/>
		<path fill="#0D0D0D" d="M141.464,146.304c-1.978,0.725-4.242,1.156-6.901,1.199c2.646-0.738,3.239-0.861-0.302-0.6
			c-0.354-0.047-0.85,0.051-0.899-0.302C134.362,145.903,141.165,146.304,141.464,146.304z"/>
		<path fill="#494644" d="M144.165,146.304c-2.559,0.64-5.341,1.061-8.104,1.501c-0.699,0-1.398,0-2.1,0c0-0.103,0-0.2,0-0.302
			c0.199,0,0.399,0,0.601,0c2.659-0.043,4.925-0.476,6.901-1.199c0.701,0,1.401,0,2.102,0
			C143.766,146.304,143.964,146.304,144.165,146.304z"/>
		<path fill="#111313" d="M133.962,147.805c-2.25,0.448-4.356,1.042-6.9,1.198c-0.2,0-0.4,0-0.6,0
			c0.662-0.836,2.842-0.156,3.299-1.198c1.168,0.854,2.688-0.504,4.201-0.302C133.962,147.604,133.962,147.704,133.962,147.805z"/>
		<path fill="#9B9692" d="M127.061,149.305c3.325-0.175,6.062-0.94,9.001-1.5c2.763-0.44,5.545-0.861,8.104-1.501
			c1.811,0.008,3.092-0.514,5.104-0.301c-15.71,2.496-30.982,5.43-45.018,9.603c5.713-3.089,14.131-3.476,20.707-5.702
			C125.146,149.192,126.807,149.952,127.061,149.305z"/>
		<path fill="#070707" d="M73.04,149.003c-1.043-1.155-1.535-2.864-2.101-4.502C72.22,145.747,72.864,147.391,73.04,149.003z"/>
		<path fill="#5C5755" d="M136.062,147.805c-2.939,0.56-5.676,1.325-9.001,1.5c0-0.101,0-0.2,0-0.302
			c2.544-0.156,4.649-0.75,6.901-1.198C134.663,147.805,135.362,147.805,136.062,147.805z"/>
		<path fill="#0D0D0D" d="M124.958,149.903c-2.445,0.155-4.406,0.799-6.603,1.201c0-0.301-0.468-0.154-0.601-0.6
			c1.828-0.607,9.306-1.301,9.306-1.2C126.807,149.952,125.146,149.192,124.958,149.903z"/>
		<path fill="#070707" d="M118.355,151.104c-1.927,0.771-4.235,1.165-6.901,1.202C113.432,151.583,115.825,151.272,118.355,151.104z
			"/>
		<path fill="#343231" d="M124.958,149.903c-6.576,2.229-14.994,2.613-20.707,5.702c-0.1,0-0.199,0-0.3,0
			c-2.792,0.812-5.6,1.604-8.702,2.101c-2.507,0.795-5.095,1.51-8.104,1.801c0.738-0.562,2.056-0.543,3.001-0.898
			c6.336-1.564,13.206-2.602,18.308-5.4c1.449,0.148,1.664-0.938,3-0.899c2.666-0.037,4.975-0.431,6.901-1.202
			C120.552,150.702,122.513,150.059,124.958,149.903z"/>
		<path fill="#070707" d="M90.146,158.607c1.159-0.872,3.459-0.553,2.7-1.801c2.979,0.985,8.441-1.544,10.504-2.4
			c-0.082,0.617-1.117,0.282-1.199,0.899c2.195-1.114,3.956-1.62,6.303-2.1C103.353,156.005,96.482,157.042,90.146,158.607z"/>
		<path fill="#9B9692" d="M95.249,157.706c3.104-0.496,5.91-1.289,8.702-2.101c-1.54,1.462-4.509,1.495-6.901,2.101
			C96.448,157.706,95.85,157.706,95.249,157.706z"/>
		<path fill="#E4E2E2" d="M157.97,121.095c0-2.4,0-4.801,0-7.201c0.199-2.505-0.396-5.801,0.3-7.807
			C158.071,110.991,158.671,116.692,157.97,121.095z"/>
		<path fill="#9F722A" d="M100.951,148.405c2.03,0.43,2.534-0.667,4.2-0.601c-0.005,0.705,0.518,0.883,0.303,1.8
			c-8.258,1.049-15.457,4.752-23.709,4.802c0.415-0.383,0.182-1.416,0.6-1.8c2.998-0.167,7.227-1.527,10.504-2.4
			c1.277-0.125,2.662-0.14,3.601-0.602C97.931,149.186,98.98,148.335,100.951,148.405z"/>
	</g>
</g>
<g id="Layer_7">
</g>
<g id="Layer_13">
</g>
</svg>
