<svg width="300" height="300" viewBox="0 0 300 300" xmlns="http://www.w3.org/2000/svg" xmlns:xlink="http://www.w3.org/1999/xlink"><title>favicon-mask</title><defs><path d="M185.315 293.177c-7.806 2.592-15.36 5.176-23.546 5.51-9.54.384-19.08 1.248-28.62.718-15.55-.872-31.516-5.103-45.67-11.128a124.867 124.867 0 0 1-21.039-11.413 119.16 119.16 0 0 1-8.846-6.587c-2.914-2.34-5.958-4.296-7.71-7.557-3.018-5.592-2.653-12.872-3.174-18.97-.728-8.658-1.448-17.764.26-26.25 1.423-7.076 2.48-13.704 6.522-20.014a38.35 38.35 0 0 1 6.53-7.679c3.47-3.114 8.309-4.753 12.541-6.758l6.496-3.082c.867-.4 1.734-.896 2.601-1.23.469-.18 3.721-1.085 4.267-1.19 1.345-.278-.138-5.707 1.345-6.67 2.41-1.524 4.553-1.043 5.403-3.774.745-2.388-.755-5.837-2.411-7.614-1.804-1.793-4.238-2.91-6.852-3.147-4.778-.644-9.392-1.712-14.153-2.616-3.209-.612-5.316-1.305-6.149-4.525-1.075-4.141.26-2.927-3.686-2.527-7.58.758-18.56-3.652-23.173-9.033-2.749-3.212-5.247-6.595-7.97-9.831-2.723-3.237-5.802-8.063-5.897-10.109-.122-2.625 2.211-6.236.642-8.755-1.492-2.389-6.071-3.261-8.49-4.688-6.172-3.374-10.723-8.855-12.706-15.301C.859 85.647.173 81.57.963 78.17c.867-3.611 5.064-4.484 3.876-8.38-1.188-3.897-3.469-7.834-.962-11.96 1.977-3.26 5.654-3.163 8.716-1.198a45.862 45.862 0 0 1 2.341-10.598c1.032-3.22 1.683-7.182 3.47-10.092 1.451-2.25 3.994-3.679 6.79-3.815 3.26 0 3.217 2.617 4.414 4.769 1.431-1.174 1.5-3.546 2.316-5.12.77-1.802 2.243-3.26 4.119-4.076 2.255-.815 4.848-.269 7.18-.114 3.175.212 6.401.139 9.489.889 2.15.53 7.805 1.467 10.068 1.084 2.602-.44 5.091-3.889 7.069-5.462a113.607 113.607 0 0 1 13.789-9.204c9.201-5.372 16.72-9.97 27.414-11.764a59.575 59.575 0 0 1 17.405-.236c5.386.685 13.01 1.883 18.213 3.668 3.824 1.321 3.816.212 5.784-3.684 2.342-4.63 5.759-2.316 10.156-.66 2.376.896 6.357 2.095 8.811 2.747 3 .815 4.475-.93 6.808-2.373 5.204-3.26 9.098.408 13.078 3.644 1.795 1.46 3.703 3.555 5.88 4.517 2.177.962 3.27 0 4.883-1.484 3.894-3.579 7.727-2.967 10.884 1.043a28.118 28.118 0 0 1 3.781 6.025c.997 2.274 1.05 4.891 2.272 7.06 1.822 3.204 7.112 3.66 7.91 7.337.477 2.184-1.145 4.223-1.041 6.415.121 2.74 2.03 4.484 3.642 6.571 2.672 3.457 6.652 9.506 3.608 13.77-1.136 1.63-3.165 2.029-3.53 4.23-.39 2.348 1.44 4.688 2.403 6.693 2.133 4.451 5.203 8.78 6.21 13.622.899 4.473-.185 9.097-3.001 12.8-2.073 2.804-9.08 6.994-9.167 9.35-.07 1.81 5.082 7.068 6.183 10.157a10.834 10.834 0 0 1 .46 7.28c-.33 1.274-.771 2.52-1.318 3.726-.59 1.166-2.368 4.378-2.923 5.592-1.336 2.91 5.863 6.522 7.346 10.957 1.795 5.38 3.295 10.948 4.709 16.426.737 2.862 1.379 5.707 1.812 8.666.434 2.96 1.822 5.022 1.735 7.859-.113 3.212-1.38 4.076-4.102 5.82-2.723 1.745-5.672 2.087-8.794 2.813-5.984 1.386-9.271-2.12-14.353-4.337-2.55-1.117-5.204-1.59-7.719-2.796-3.183-1.508-8.672-5.756-12.202-5.756-1.18 0-5.03 2.83-6.409 3.587-1.648.913 2.29 1.63 4.067 1.9 2.862.44.564 4.728.78 6.212.218 1.483 4.597 2.861 6.73 4.002a139.469 139.469 0 0 1 15.013 9.204c4.12 2.943 9.21 6.318 11.899 10.598a9.263 9.263 0 0 1 1.387 5.764 112.68 112.68 0 0 0-.182 6.644c0 5.706.19 11.502.19 17.242 0 5.494-.623 10.956-.866 16.459a25.64 25.64 0 0 1-1.214 7.247c-.954 2.715-3.097 4.582-4.666 6.995-5.707 8.771-14.154 15.489-23.59 20.641-2.168 1.174-4.553 2.658-6.938 3.391a47.143 47.143 0 0 0-7.761 2.699zM204.472 75.13c3.096-1.222 6.07-4.394 9.54-4.67 2.87-.229 5.36 2.339 7.528 3.766.572.383 6.695 1.67 6.33 2.592-.65 1.63-8.42-.26-9.288-.815-1.249-.816-2.16-2.258-3.65-2.682-1.822-.522-3.227.668-4.71 1.492-1.622.904-8.915 2.698-7.927 5.298.772 2.03 2.455.106 3.47-.611a8.103 8.103 0 0 1 4.908-1.736c3.833 0 6.2 3.04 10.208 2.975 3.876-.057 7.068.758 9.6 3.726.056-1.93-.73-3.798-2.177-5.169-.867-.758-3.868-1.704-3.816-2.829.078-1.63 3.114-.35 3.166-2.193 0-.97-2.333-3.562-2.775-4.442-1.18-2.397-3.088-5.707-3.374-8.316-.32-2.943 2.29-4.41 3.781-6.521 1.396-1.965 1.058-3.718-.182-5.707a75.117 75.117 0 0 0-4.657-7.003c-1.414-1.752-2.845-3.26-2.793-5.6.044-2.144 1.457-4.003.13-6.074-1.075-1.67-3.382-2.168-4.76-3.603-1.796-1.883-2.36-4.378-3.08-6.734-.433-1.402-1.023-5.274-2.723-5.95-1.7-.677-4.05 2.03-5.958 2.364-5.264.92-10.858-3.62-14.578-6.522-1.648-1.288-3.122-2.984-5.204-1.63-2.601 1.63-3.373 2.747-6.756 2.33-2.7-.35-5.354-.968-7.918-1.842-2.003-.668-5.81-1.752-6.565-1.703-1.552.114-1.092 3.847-3.07 4.801-2.359 1.142-5.758.734-8.23.31-6.07-1.052-11.916-3.024-18.065-3.872-12.046-1.671-23.494 1.035-34.352 5.935-10.407 4.703-18.715 11.462-27.587 18.252-5.056 3.873-8.829 3.62-14.63 1.63a42.985 42.985 0 0 0-8.378-1.548c-1.319-.18-3.226-.612-4.484.057-3.469 1.859-1.63 7.793-4.267 10.117-4.822 4.239-15.229-.816-14.362-4.28-1.5 1.255-2.766 5.372-1.231 6.807 1.535 1.435.442 3.685-.65 5.079-2.22 2.828-1.414 6.212-1.007 9.448.33 2.576 2.42 6.587-2.254 6.57-4.076 0-5.776-4.173-9.28-5.127a7.952 7.952 0 0 0 1.613 5.005c1.5 2.022 3.669 3.905 3.807 6.522.113 2.242-1.275 3.889-3.191 5.07-1.917 1.183-4.024 1.069-4.475 3.205-.547 2.625 1.223 6.807 2.671 8.967a22.765 22.765 0 0 0 5.889 5.837c2.176 1.533 10.728 7.639 13.26 5.804 1.786-1.296 2.185-6.114 2.775-8.07.971-3.212 1.735-6.653 3.079-9.783 2.168-4.997 9.219-5.372 14.223-5.51 9.08-.262 19.314 1.336 21.803 10.679-2.342.587-1.96-.204-3.4-1.036-.867-.505-1.986-2.397-2.931-2.861a40.869 40.869 0 0 0-5.204-2.544 25.033 25.033 0 0 0-9.323-1.043c-2.81.163-7.866.416-10.043 2.274-2.176 1.859-2.688 6.245-3.469 8.74-1.101 3.643-2.09 7.336-2.862 11.021a81.29 81.29 0 0 0-1.57 10.598c-.286 3.815 1.284 6.065 3.366 9.26 3.373 5.161 7.623 11.618 13.312 14.789a22.424 22.424 0 0 0 9.15 2.201c3.33.057 7.05-.995 10.32.073 3.27 1.068 2.315 3.123 3.417 5.56 1.205 2.674 4.822 3.196 7.536 3.457 3.14.301 7.467.53 10.407 1.63 2.42.905 3.86 3.147 6.149 4.28 7.666 3.799 15.914 7.264 23.884 10.54a31.842 31.842 0 0 0 5.845 1.876c2.082.416 3.851 1.426 5.967 1.744 4.198.628 11.743-.073 12.497-.815.442-.44.234-2.56-.754-3.26-.694-.465.39-1.965-.113-2.096a33.864 33.864 0 0 1 5.602 1.81c1.96.921 2.767 2.152 4.19 3.595 1.846 1.867 4.804 5.103 7.735 5.454 1.735.204 3.955-.62 5.69-.897 1.977-.31 3.963-.587 5.94-.888a77.287 77.287 0 0 0 11.69-2.446c1.631-.514 9.54-2.862 9.063-5.006-.234-1.14-7.337-3.709-8.55-4.328-3.01-1.525-6.167-3-9.619-3.326-3.729-.36-7.285 1.679-10.944 1.043-4.215-.734-2.186-3.44-3.79-5.943-1.423-2.21-5.455-1.133-7.589-.815-2.133.318-4.423.897-6.608 1.426-1.934.465-4.631 1.63-6.583 1.492-1.3-.097-.962.816-1.552-.595a2.202 2.202 0 0 1 .113-1.581c.659-1.256 1.882-1.272 3.183-1.476 4.336-.685 8.603-1.426 12.93-2.331 2.177-.457 7.13-3.71 9.054-1.704 1.57 1.63-.485 4.492.13 6.522 1.041 3.39 4.259 2.127 7 1.361 3.92-1.1 6.937-1.76 10.675.147 3.738 1.907 7.866 2.625 11.43 4.45 1.605.816 2.784 1.974 4.528 2.683 1.743.71 3.356 1.133 4.978 1.842 3.824 1.63 7.363 3.946 11.187 5.666 3.972 1.785 8.04 3.391 12.046 5.111 2.602 1.117 3.86 2.397 9.09 1.394 3.251-.62 3.468-2.152 2.193-6.44-1.084-3.636-1.448-7.418-2.385-11.095-1.804-7.084-4.579-14.315-9.236-19.94-2.385-2.878-4.041-6.04-6.6-8.715-1.856-1.948-3.642-4.002-5.594-5.926-2.896-2.854-5.125-6.522-7.918-9.555-2.315-2.494-5.394-5.242-7.45-7.964-1.89-2.503-.788-2.731.66-5.307a17.798 17.798 0 0 1 3.01-3.995c2.037-1.99 4.64-2.111 7.44-2.307 2.42-.28 4.873.147 7.025 1.223a31.557 31.557 0 0 0 4.666 2.03c2.402.66 3.573 0 5.108-1.81 1.535-1.81 5.602-5.372 4.423-7.46-1.067-1.899-4.12-5.013-6.409-5.51-3.703-.816-6.825.815-10.12-1.786-1.605-1.271-1.84-1.89-3.843-.587-1.734 1.117-2.602 2.552-4.804 3.033-1.457.318-5.672-.4-5.863-2.266-.104-.979 1.37-4.5 1.83-5.552.92-2.07 3.2-2.413 5.29-1.215zm7.805 35.422c3.348-1.19 6.748-3.139 4.649-7.085-.867-1.59-2.454-2.331-4.172-2.87-1.717-.537-4.136-1.507-5.88-1.54-3.66-.065-7.423 4.565-5.203 7.671 2.532 3.546 6.235 6.188 10.65 3.815l-.044.009zM111.503 239.739c-1.64-.4-3.365-.383-5.013-.75-7.484-1.687-14.04-5.177-21.465-7.109-7.423-1.932-13.511-5.462-19.678-10.067a57.223 57.223 0 0 1-7.024-6.571c-2.49-2.6-3.053-.718-3.244 1.948-.58 8.07-1.387 15.995-.867 24.106.234 3.628.867 7.215 1.023 10.834.208 3.848 1.735 6.163 4.588 8.862a109.008 109.008 0 0 0 17.978 13.084 64.537 64.537 0 0 0 9.93 5.006c3.608 1.394 6.782 3.578 10.537 4.654 3.313.946 6.461 2.38 9.783 3.261 3.747 1.036 7.805 1.582 11.586 2.446a179.408 179.408 0 0 0 29.07 3.725c8.673.433 18.742.571 27.033-1.948a108.177 108.177 0 0 0 24.084-10.965c1.136-.676 2.601-1.092 3.538-2.03.39-.39.598-.904.98-1.271a4.373 4.373 0 0 1 2.142-1.476c3.148-1.443 4.9-4.532 7.684-6.432 5.984-3.562 9.158-10.524 10.008-16.956a168.862 168.862 0 0 0 1.084-22.264c0-1.63.703-7.818-1.292-7.834-.867 0-3.66 2.307-4.414 2.682-2.082 1.052-4.154 2.12-6.245 3.147-6.547 3.203-13.546 5.608-20.068 8.861a43.635 43.635 0 0 1-4.449 1.63c-1.434.55-2.917.979-4.431 1.28-.729.123-1.145.538-2.047.726-.772.163-1.535-.049-2.255.073-1.96.326-4.128.897-6.253 1.142-8.42.953-16.426 1.932-24.777 2.894a32.266 32.266 0 0 1-9.982 0 87.505 87.505 0 0 0-11.596-1.378c-2.263-.13-4.561-.701-6.816-.962l-9.132-2.348zm19.999-52.435c3.711 1.231 8.039.188 11.898.563a9.15 9.15 0 0 1 3.148.62c1.83.888 1.405 2.086 2.36 3.399 1.777 2.446 8.94 2.641 11.664 1.76 2.723-.88 1.197-2.836 2.393-4.85 1.431-2.405 4.987-1.133 7.303-1.263 3.256-.196 6.358-1.374 8.846-3.36 1.734-1.41 5.281-5.706 2.341-7.507-1.119-.693-3.39-.041-4.648.073-2.264.204-4.536.391-6.8.612-3.807.358-8.767 1.72-12.523.815-2.93-.734-4.336-2.935-6.504-4.688-2.853-2.34-5.82-.758-9.254-.994-8.082-.555-15.662.163-23.476-2.805-3.521-1.337-7.146-2.641-10.563-4.198-2.142-.978-7.19-5.128-7.9-.815-.192 1.19.988 3.97 1.395 5.176.53 1.55 1.145 3.033.963 4.696-.39 3.49-1.284 5.535 2.28 7.81 3.565 2.274 8.673 3.432 12.888 4.035 4.64.57 9.644-.081 14.18.872l.009.05zm61.652 44.731c6.427-1.924 12.055-5.584 18.213-8.054 2.905-1.166 4.527-2.568 7.025-4.402 2.332-1.712 5.888-3.171 6.435-6.245.936-5.242-8.673-10.157-12.506-12.171-1.318-.685-1.683-.611-2.888-1.704a23.735 23.735 0 0 0-3.408-2.568c-2.871-1.801-6.071-3.09-8.96-4.891-1.898-1.166-3.928-3.31-5.688-.88-1.76 2.429-1.908 6.644-2.689 9.448-.399 1.427-1.214 2.82-1.734 4.264-.52 1.442-.356 2.836-.633 4.336-.582 3.188-3.747 6.408-6.6 7.99-6.583 3.652-15.255 5.396-22.748 6.318a92.497 92.497 0 0 1-23.208-.245 118.812 118.812 0 0 1-11.092-2.014c-1.865-.424-3.608-1.051-5.438-1.549-1.83-.497-3.937-.293-5.62-.961a75.833 75.833 0 0 0-7.172-2.528c-2.966-.856-5.1-3.521-7.805-5.054-1.214-.685-3.287-1.361-4.172-2.38-.884-1.02-1.37-3.473-1.639-4.957-.633-3.473-.659-7.1-1.266-10.598-.303-1.76-.607-3.53-.737-5.307-.06-.815.39-3.546-.312-4.223-1.405-1.345-6.67 1.63-8.126 2.104-6.071 2.03-11.613 2.87-15.758 8.005-3.756 4.647-7.094 10.785-3.183 16.125 3.911 5.34 7.718 10.019 13.876 13.296 6.157 3.277 12.87 4.647 19.08 7.337a57.323 57.323 0 0 0 11.23 3.726c2.056.415 3.99 1.19 6.15 1.532a38.86 38.86 0 0 1 5.02.816c7.26 2.217 16.175 2.918 23.98 3.195 9.092.304 18.194-.242 27.171-1.63 4.727-.726 9.418-1.63 14.058-2.78a118.765 118.765 0 0 0 11.136-3.4l.008.05zm-48.063-23.788c-2.237-2.185-1.344-6.09-1.552-8.845-.286-3.725 1.396-5.95-3.608-6.473-4.692-.489-9.375-.432-14.015-1.345-4.284-.815-8.672-.937-12.887-1.932-6.131-1.443-14.258-3.53-17.45-9.253a7.677 7.677 0 0 1-1.014-4.157c0-.978.867-1.85-.72-2.006-3.208-.326-.97 6.237-.867 7.606.304 3.261.382 6.677.867 10.076.538 3.547.2 7.867 1.692 11.177 2.766 6.155 12.627 8.698 18.758 10.508 3.773 1.117 7.597 1.843 11.274 3.212 1.787.669 3.565.612 5.351 1.06a46.803 46.803 0 0 0 6.713 1.337c4.336.448 8.551 1.1 13.009.913 5.117-.22 9.895-1.37 14.838-2.519 6.41-1.492 15.446-3.359 16.886-10.802 1.734-8.78 5.559-17.2 6.608-26.299-2.601 4.419-6.868 7.435-11.716 9.481a63.179 63.179 0 0 1-7.12 2.283c-3.062.88-2.828 1.81-2.672 4.492.209 3.79-.867 10.818-4.787 13.043-1.734.987-7.007 2.014-9.15 2.047a18.174 18.174 0 0 1-4.951-.88c-1.726-.661-2.272-1.42-3.495-2.773l.008.05zm79.328-94.5c-.486-3.114-2.16-2.886-4.649-1.508a28.582 28.582 0 0 1-4.084 2.046c-.989.359-3.773.514-4.432 1.28-1.414 1.63 2.168 3.775 3.192 5.079a95.548 95.548 0 0 0 7.258 8.332c2.871-4.623 5.013-10.011 2.706-15.286l.009.057zm-75.451 86.56c-.729 5.584 4.215 8.152 9.54 6.228 3.278-1.198 6.521-5.934 3.824-9.22-1.5-1.818-7.684-1.826-9.921-1.98-3.651-.278-3.356 2.021-3.486 4.915l.043.057z" id="a"/></defs><g stroke="#000" fill-rule="nonzero" fill="none"><path d="M184.168 114.082l.174 2.934a3.393 3.393 0 0 0-1.084 2.348c-1.21.803-2.06 2-2.385 3.359-1.25 2.348-3.4 3.473-6.002 4.174-5.333 1.435-10.788 1.443-16.26 1.63-5.473.188-8.899-3.334-12.61-6.26-1.05-.816-.772-1.95-.087-2.952.789-1.15 1.986-1.051 3.061-.636a4.816 4.816 0 0 1 2.003 1.476c2.966 3.872 7.077 4.769 11.821 4.23 3.278-.374 6.583-.594 9.86-.977 2.472-.294 4.415-1.272 4.667-3.946.763-2.446 5.645-2.87 4.232-5.886-1.067-2.266-3.946-3.774-6.071-5.592a8.95 8.95 0 0 0-1.734-1.158c-5.638-2.894-11.509-5.013-17.25-.652a38.748 38.748 0 0 0-8.855 9.204l-11.005 5.087c-1.414.57-3 1.386-4.111-.196-.954-1.353.147-2.152 1.474-2.609 1.813.318 2.923-1.027 4.337-1.63 1.188-.049 2.55.603 3.469-.71l6.21-8.869c3.468-2.6 6.842-5.315 11.152-6.636 6.07-.383 12.046-.171 17.345 3.13 3.053 2.887 7.19 5.104 7.025 9.987l.624 1.15z" stroke-width="6" fill="#292724"/><path d="M159.781 117.742c.572-1.32.72-3.065 2.75-3.139 1.456-.057 1.873.93 1.803 2.201 0 .767.416.856 1.067.473.867-.522 1.908-1.076 1.344-2.176a17.88 17.88 0 0 0-2.194-2.772c2.368-1.63 3.929-.228 5.204 1.239 1.422 1.687 1.196 3.48-.547 4.997-3.313 1.223-6.695 3.506-9.427-.823z" stroke-width="3" fill="#222221"/><g transform="translate(19)"><use fill="#222221" fill-rule="evenodd" xlink:href="#a"/><use stroke-width="9" xlink:href="#a"/></g></g></svg>